<?xml version="1.0" encoding="UTF-8" standalone="no"?>
<svg width="493px" height="431px" viewBox="0 0 493 431" version="1.1" xmlns="http://www.w3.org/2000/svg" xmlns:xlink="http://www.w3.org/1999/xlink">
    <!-- Generator: Sketch 40.3 (33839) - http://www.bohemiancoding.com/sketch -->
    <title>Combined Shape</title>
    <desc>Created with Sketch.</desc>
    <defs></defs>
    <g id="Page-1" stroke="none" stroke-width="1" fill="none" fill-rule="evenodd">
        <g id="Artboard" transform="translate(-42.000000, -87.000000)" fill="#FFFFFF">
            <path d="M313.463078,86.9991561 C278.37963,86.9991561 249.930075,115.417441 249.930075,150.473634 L249.930075,272.610824 L169.068201,272.610824 L169.068201,150.473634 C169.068201,115.417441 140.625404,86.9991561 105.533509,86.9991561 C70.4449934,86.9991561 42.0005068,115.417441 42.0005068,150.473634 L42.0005068,513.050642 L169.068201,513.050642 L169.068201,387.062014 L249.930075,387.062014 L249.930075,513.050642 L376.99608,513.050642 L376.99608,150.473634 C376.99608,115.417441 348.551594,86.9991561 313.463078,86.9991561 Z M470.000929,518 C505.89967,518 535.001351,488.89832 535.001351,452.999578 C535.001351,417.100836 505.89967,387.999156 470.000929,387.999156 C434.102187,387.999156 405.000507,417.100836 405.000507,452.999578 C405.000507,488.89832 434.102187,518 470.000929,518 Z M533.068201,150.473634 C533.068201,115.417441 504.625404,86.9991561 469.533509,86.9991561 C434.444993,86.9991561 406.000507,115.417441 406.000507,150.473634 L406.000507,368.050642 L533.068201,368.050642 L533.068201,150.473634 Z" id="Combined-Shape"></path>
        </g>
    </g>
</svg>